HIERARCHY
ROOT Hips
{
 OFFSET 0.000000 0.000000 0.000000
 CHANNELS 6 Xposition Yposition Zposition Yrotation Xrotation Zrotation
 JOINT Chest
 {
  OFFSET 0.000000 13.173100 -0.061900
  CHANNELS 3 Yrotation Xrotation Zrotation
  JOINT Chest2
  {
   OFFSET 0.000000 8.040800 0.126200
   CHANNELS 3 Yrotation Xrotation Zrotation
   JOINT Chest3
   {
    OFFSET 0.000000 7.994400 0.000000
    CHANNELS 3 Yrotation Xrotation Zrotation
    JOINT Chest4
    {
     OFFSET 0.000000 7.986200 0.000000
     CHANNELS 3 Yrotation Xrotation Zrotation
     JOINT Neck
     {
      OFFSET 0.000000 12.259400 0.000000
      CHANNELS 3 Yrotation Xrotation Zrotation
      JOINT Head
      {
       OFFSET 0.000000 7.518700 0.267100
       CHANNELS 3 Yrotation Xrotation Zrotation
       End Site
       {
        OFFSET 0.000000 13.617700 0.141000
       }
      }
     }
     JOINT RightCollar
     {
      OFFSET -2.983800 8.314300 0.000000
      CHANNELS 3 Yrotation Xrotation Zrotation
      JOINT RightShoulder
      {
       OFFSET -16.133400 0.000000 0.000000
       CHANNELS 3 Yrotation Xrotation Zrotation
       JOINT RightElbow
       {
        OFFSET 0.000000 -29.822100 0.000000
        CHANNELS 3 Yrotation Xrotation Zrotation
        JOINT RightWrist
        {
         OFFSET 0.000000 -24.437700 0.010900
         CHANNELS 3 Yrotation Xrotation Zrotation
         End Site
         {
          OFFSET 0.000000 -18.312300 0.000000
         }
        }
       }
      }
     }
     JOINT LeftCollar
     {
      OFFSET 2.983800 8.314300 0.000000
      CHANNELS 3 Yrotation Xrotation Zrotation
      JOINT LeftShoulder
      {
       OFFSET 16.133400 0.000000 0.000000
       CHANNELS 3 Yrotation Xrotation Zrotation
       JOINT LeftElbow
       {
        OFFSET 0.000000 -29.822100 0.000000
        CHANNELS 3 Yrotation Xrotation Zrotation
        JOINT LeftWrist
        {
         OFFSET 0.000000 -24.437700 0.010900
         CHANNELS 3 Yrotation Xrotation Zrotation
         End Site
         {
          OFFSET 0.000000 -18.312300 0.000000
         }
        }
       }
      }
     }
    }
   }
  }
 }
 JOINT RightHip
 {
  OFFSET -11.206700 0.306200 0.030900
  CHANNELS 3 Yrotation Xrotation Zrotation
  JOINT RightKnee
  {
   OFFSET 0.000000 -57.334900 0.009400
   CHANNELS 3 Yrotation Xrotation Zrotation
   JOINT RightAnkle
   {
    OFFSET 0.000000 -43.376200 0.036600
    CHANNELS 3 Yrotation Xrotation Zrotation
    JOINT RightToe
    {
     OFFSET 0.000000 -10.035500 18.363100
     CHANNELS 3 Yrotation Xrotation Zrotation
     End Site
     {
      OFFSET 0.000000 -1.618500 7.239000
     }
    }
   }
  }
 }
 JOINT LeftHip
 {
  OFFSET 11.206700 0.306200 0.030900
  CHANNELS 3 Yrotation Xrotation Zrotation
  JOINT LeftKnee
  {
   OFFSET 0.000000 -57.334900 0.009400
   CHANNELS 3 Yrotation Xrotation Zrotation
   JOINT LeftAnkle
   {
    OFFSET 0.000000 -43.376200 0.036600
    CHANNELS 3 Yrotation Xrotation Zrotation
    JOINT LeftToe
    {
     OFFSET 0.000000 -10.035500 18.363100
     CHANNELS 3 Yrotation Xrotation Zrotation
     End Site
     {
      OFFSET 0.000000 -1.618500 7.239000
     }
    }
   }
  }
 }
}
MOTION
Frames: 6
Frame Time: 0.008333
-75.060305 70.378321 53.026795 -171.693980 -29.514221 -10.481852 -4.149589 13.811454 6.000659 -2.772551 8.163682 1.567427 -3.443922 10.218988 1.905222 -2.776499 8.166450 1.570454 2.011220 23.738741 -3.564079 3.002296 -0.020414 -4.335127 8.916376 -5.818795 -5.730033 0.169980 -23.187893 0.567701 51.298071 -30.527339 -29.834718 9.625733 13.717884 -10.684874 -9.274131 -4.368714 -4.838879 -6.544468 -20.231853 4.195769 -54.198160 -28.470556 42.178404 3.997170 -0.264305 3.755768 -26.701404 -29.302722 5.738359 58.389365 87.362109 56.868302 2.100155 -26.392672 -5.777799 -0.958848 2.394857 -0.522946 -13.965615 -46.954175 9.046548 175.760519 73.149697 173.789507 -2.900055 -24.240585 1.757681 -0.491051 -1.743831 -0.269722
-75.063524 70.377020 53.028449 -171.691958 -29.522443 -10.485843 -4.144773 13.817004 6.001697 -2.769334 8.166325 1.564841 -3.439935 10.222627 1.903868 -2.773293 8.169364 1.569367 2.004333 23.666754 -3.558155 2.992866 -0.108171 -4.325952 8.906250 -5.817641 -5.718177 0.159955 -23.191414 0.568680 51.310422 -30.535767 -29.846139 9.626214 13.717594 -10.680610 -9.285025 -4.368855 -4.834442 -6.546095 -20.235121 4.198298 -54.162254 -28.470347 42.200475 3.970410 -0.295666 3.720976 -26.698177 -29.295255 5.736704 58.389744 87.360405 56.863306 2.098690 -26.394833 -5.769056 -0.961530 2.397836 -0.524797 -13.966246 -46.946449 9.045639 175.767640 73.148830 173.796821 -2.899156 -24.243141 1.757111 -0.488130 -1.742743 -0.268126
-75.067139 70.375948 53.029293 -171.688690 -29.533314 -10.488056 -4.142292 13.825142 5.997425 -2.765441 8.168579 1.565339 -3.436863 10.224533 1.902364 -2.774457 8.170511 1.571714 2.001267 23.599494 -3.558317 2.981139 -0.191969 -4.314770 8.900343 -5.817762 -5.711646 0.153067 -23.187336 0.571947 51.322233 -30.546446 -29.866985 9.632735 13.717308 -10.678132 -9.291352 -4.363137 -4.847907 -6.544404 -20.236122 4.209639 -54.139818 -28.467929 42.222512 3.971302 -0.349781 3.710740 -26.688531 -29.289375 5.728308 58.425108 87.361400 56.899330 2.097777 -26.390106 -5.761837 -0.961247 2.392813 -0.525042 -13.964185 -46.935672 9.041106 175.766307 73.148235 173.794739 -2.901721 -24.246333 1.756404 -0.486639 -1.742000 -0.265415
-75.070694 70.374216 53.030862 -171.683280 -29.538378 -10.489454 -4.138843 13.827150 5.993718 -2.769997 8.171325 1.567569 -3.435843 10.224994 1.901734 -2.770029 8.171374 1.567569 2.001580 23.538107 -3.555917 2.966625 -0.269354 -4.302379 8.889363 -5.810782 -5.701288 0.154621 -23.189807 0.571260 51.328021 -30.554120 -29.885514 9.636155 13.713847 -10.678887 -9.299570 -4.360985 -4.844659 -6.539965 -20.237601 4.211006 -54.130401 -28.465641 42.229245 3.980561 -0.377365 3.707680 -26.690010 -29.287679 5.723599 58.457478 87.362762 56.928665 2.096793 -26.389697 -5.760874 -0.959871 2.391960 -0.522129 -13.964960 -46.931756 9.038076 175.773388 73.148366 173.802113 -2.910750 -24.247595 1.756369 -0.482449 -1.740527 -0.261381
-75.073524 70.372445 53.032356 -171.682098 -29.542326 -10.490024 -4.125512 13.828542 5.995260 -2.767112 8.172089 1.567126 -3.432269 10.226178 1.901320 -2.767041 8.172145 1.567050 1.994941 23.482874 -3.549162 2.950723 -0.341303 -4.287895 8.872992 -5.808833 -5.688896 0.153599 -23.188029 0.568885 51.340943 -30.571859 -29.927696 9.655618 13.711948 -10.651036 -9.321912 -4.351956 -4.844610 -6.541852 -20.246028 4.223228 -54.122570 -28.479412 42.248252 3.980756 -0.383883 3.691365 -26.684462 -29.287568 5.718347 58.492787 87.364146 56.967326 2.094460 -26.389178 -5.761903 -0.958399 2.391413 -0.519448 -13.962754 -46.928286 9.034131 175.779191 73.148047 173.809110 -2.910109 -24.251960 1.754413 -0.482854 -1.737079 -0.259741
-75.077262 70.370722 53.033302 -171.676385 -29.546492 -10.487092 -4.113354 13.829634 5.991253 -2.762503 8.173603 1.566965 -3.426438 10.227948 1.901058 -2.762563 8.173664 1.566886 1.983706 23.430791 -3.536527 2.935660 -0.412053 -4.270871 8.836757 -5.795669 -5.667534 0.168971 -23.200367 0.559833 51.345345 -30.582047 -29.955072 9.664409 13.712770 -10.632337 -9.349824 -4.347325 -4.842186 -6.547144 -20.252820 4.231438 -54.067108 -28.480859 42.275050 3.948304 -0.416020 3.642195 -26.678031 -29.290263 5.707774 58.541916 87.370091 57.020592 2.088322 -26.388253 -5.765081 -0.952556 2.385268 -0.513292 -13.960029 -46.924308 9.023248 175.800381 73.150120 173.828145 -2.906234 -24.257397 1.754348 -0.480231 -1.731944 -0.258757
